<svg id="Layer_2" data-name="Layer 2" xmlns="http://www.w3.org/2000/svg" viewBox="0 0 893 445"><defs><style>.cls-1{fill:#1f687f;}.cls-2{fill:#0b9949;}.cls-13,.cls-3{fill:#f2e8d1;}.cls-14,.cls-15,.cls-3{stroke:#1c687e;}.cls-12,.cls-13,.cls-14,.cls-15,.cls-3,.cls-4,.cls-5,.cls-8,.cls-9{stroke-miterlimit:10;}.cls-3{stroke-width:12px;}.cls-11,.cls-4,.cls-9{fill:#c5dabf;}.cls-13,.cls-4,.cls-5,.cls-8,.cls-9{stroke:#000;}.cls-4{stroke-width:7px;}.cls-5,.cls-7{fill:#fff;}.cls-14,.cls-5,.cls-8{stroke-width:3px;}.cls-6{fill:#8bcb96;}.cls-10,.cls-12,.cls-8{fill:#17936f;}.cls-12,.cls-9{stroke-width:2px;}.cls-12{stroke:#1f687f;}.cls-14,.cls-15{fill:none;}.cls-15{stroke-width:15px;}</style></defs><g id="Layer_64" data-name="Layer 64"><path class="cls-1" d="M458.77,173.9h16.77l10.49,43,10.4-43h16.69L519,236.85H507.1l-4.13-42-10.15,42H479.41l-10.58-42-3.7,42H453.26Z"/><path class="cls-1" d="M527.74,173.9h12v62.95h-12Z"/><path class="cls-1" d="M546.23,173.9h46.52V185H575.29v51.86h-12V185h-17Z"/><path class="cls-1" d="M596.28,226.79H650.8v10.15H596.28Z"/><path class="cls-2" d="M661.64,173.9h16.77l10.49,43,10.4-43H716l5.84,62.95H710l-4.13-42-10.15,42H682.28l-10.58-42-3.7,42H656.13Z"/><path class="cls-2" d="M749.53,173.9H763.2l20.47,62.95H770.85l-4.47-13.93H745.74l-4.55,13.93h-12.9Zm14,38.36-7-22.53-7.57,22.53Z"/><path class="cls-2" d="M790.12,173.9h12v27h21.58v-27h12v62.95h-12V211.91H802.16v24.94h-12Z"/><path class="cls-2" d="M844.55,187c0-10.92,7.74-13.16,13.68-13.07,0,0,22.19.6,27.69,1.38v10H861.07c-4.48,0-4.48,2.5-4.48,4.82v9.8l25.46.86v10l-25.46.77v9.81c0,4.55,2.84,4.47,5.34,4.47h24v9.89c-4.9.69-26.83,1.46-26.83,1.46-5.59.26-14.54-1-14.54-12.64Z"/></g><g id="Layer_61" data-name="Layer 61"><circle class="cls-3" cx="225" cy="220.7" r="182.8"/></g><g id="Layer_60" data-name="Layer 60"><path class="cls-4" d="M282.9,156.57s-41.85,7-50.81,42.86,11.7,78.09-18.47,87.05S221.2,339,249.05,353s89.29-32,91.85-56.32,11.52-128.46-14.08-136.55S282.9,156.57,282.9,156.57Z"/></g><g id="Layer_59" data-name="Layer 59"><line class="cls-5" x1="214.1" y1="286.48" x2="192.07" y2="276.46"/></g><g id="Layer_58" data-name="Layer 58"><path class="cls-5" d="M224.92,276.46s-21.76-9-24.75-6.41"/></g><g id="Layer_57" data-name="Layer 57"><path class="cls-5" d="M231.2,259.87c-2.44-.06-22.49-1.76-22.49-1.76"/></g><g id="Layer_56" data-name="Layer 56"><line class="cls-5" x1="231.2" y1="232.93" x2="208.71" y2="245.31"/></g><g id="Layer_55" data-name="Layer 55"><line class="cls-5" x1="231.2" y1="206.33" x2="212.55" y2="224.83"/></g><g id="Layer_54" data-name="Layer 54"><path class="cls-5" d="M234.46,193.47s-16.37.21-21.91,7.46"/></g><g id="Layer_53" data-name="Layer 53"><line class="cls-5" x1="245.52" y1="176.31" x2="219.96" y2="182.16"/></g><g id="Layer_52" data-name="Layer 52"><line class="cls-5" x1="259.24" y1="165.73" x2="228.34" y2="165.73"/></g><g id="Layer_51" data-name="Layer 51"><line class="cls-5" x1="271.95" y1="159.81" x2="247.54" y2="151.01"/></g><g id="Layer_50" data-name="Layer 50"><line class="cls-5" x1="283.38" y1="156.57" x2="264.6" y2="137.76"/></g><g id="Layer_49" data-name="Layer 49"><path class="cls-5" d="M303,156.57s-7.16-15.8-13-17.08"/></g><g id="Layer_48" data-name="Layer 48"><line class="cls-5" x1="318.88" y1="157.88" x2="318.88" y2="139.49"/></g><g id="Layer_47" data-name="Layer 47"><path class="cls-5" d="M331.74,162.8s7.53-11,6.25-15.63"/></g><g id="Layer_46" data-name="Layer 46"><path class="cls-5" d="M338.14,173.21s10.95-.86,11.37-7.48"/></g><g id="Layer_45" data-name="Layer 45"><line class="cls-5" x1="342.85" y1="193.47" x2="356.77" y2="179.23"/></g><g id="Layer_44" data-name="Layer 44"><line class="cls-5" x1="344.99" y1="208.19" x2="358.47" y2="193.47"/></g><g id="Layer_43" data-name="Layer 43"><line class="cls-5" x1="344.97" y1="227.38" x2="361.46" y2="215.58"/></g><g id="Layer_42" data-name="Layer 42"><line class="cls-5" x1="344.99" y1="241.47" x2="361.46" y2="235.11"/></g><g id="Layer_41" data-name="Layer 41"><line class="cls-5" x1="344.99" y1="259.87" x2="356.77" y2="247.01"/></g><g id="Layer_40" data-name="Layer 40"><line class="cls-5" x1="342.85" y1="276.46" x2="355.06" y2="269.59"/></g><g id="Layer_39" data-name="Layer 39"><path class="cls-5" d="M342,290.51s9.66-8.42,14.78-7.4"/></g><g id="Layer_38" data-name="Layer 38"><path class="cls-5" d="M338.14,306.13c.5-1,17.77-5.78,20.33-10.9"/></g><g id="Layer_37" data-name="Layer 37"><path class="cls-5" d="M330.43,317.09c-.09.11,13.4,0,13.4,0"/></g><g id="Layer_36" data-name="Layer 36"><path class="cls-5" d="M321.42,326.37s6.2,10.25,13.52,7.69"/></g><g id="Layer_35" data-name="Layer 35"><path class="cls-5" d="M307.08,337.81s12.7,7.77,14.34,8.62"/></g><g id="Layer_34" data-name="Layer 34"><path class="cls-5" d="M285,350.17s32.53,11.2,31.25,9.92"/></g><g id="Layer_33" data-name="Layer 33"><path class="cls-5" d="M268,355.18s-.36,4.05,8.6,10"/></g><g id="Layer_32" data-name="Layer 32"><line class="cls-5" x1="250.95" y1="355.18" x2="250.95" y2="374.17"/></g><g id="Layer_31" data-name="Layer 31"><path class="cls-5" d="M234.46,346.43s-7.53,4.48,0,13.76"/></g><g id="Layer_30" data-name="Layer 30"><line class="cls-5" x1="224.92" y1="335.13" x2="214.1" y2="350.17"/></g><g id="Layer_29" data-name="Layer 29"><path class="cls-5" d="M214.1,323.38s-11.1,6.66-11,14.43"/></g><g id="Layer_28" data-name="Layer 28"><path class="cls-5" d="M203.94,309.37c-4.27,4-11.95,20.24-11.95,20.24"/></g><g id="Layer_27" data-name="Layer 27"><path class="cls-5" d="M203.62,295.23s-14.54-1-19.66,5.45"/></g><g id="Layer_26" data-name="Layer 26"><path class="cls-6" d="M329.28,212.41c.1,9.55-8.5,19.25-18.23,19.19-8.68,0-14.24-8-14.83-8.88a20.51,20.51,0,0,1-3.41-10.31c-.17-2.56-.57-8.81,3.94-13.86,5.32-6,13.17-5.43,14.3-5.33a18.83,18.83,0,0,1,10.76,4.8C322.9,199,329.2,204.32,329.28,212.41Z"/><path d="M311.14,233.27H311c-9.27-.06-15.12-8-16.2-9.62a22.09,22.09,0,0,1-3.69-11.13c-.17-2.6-.62-9.5,4.36-15.08,5.7-6.38,14.05-6,15.68-5.88a20.55,20.55,0,0,1,11.7,5.19c2.39,2,8,7.66,8.06,15.64h0a21.52,21.52,0,0,1-6.43,14.93A19,19,0,0,1,311.14,233.27Zm-1.45-38.44c-2.53,0-7.88.56-11.7,4.83-4.05,4.53-3.67,10.21-3.52,12.64a18.8,18.8,0,0,0,3.13,9.48c.56.83,5.7,8.11,13.46,8.15h.08a15.72,15.72,0,0,0,11-5,18,18,0,0,0,5.45-12.53h0c-.06-6.62-4.84-11.4-6.88-13.15a17.24,17.24,0,0,0-9.82-4.4C310.67,194.86,310.25,194.83,309.69,194.83Z"/></g><g id="Layer_25" data-name="Layer 25"><path class="cls-7" d="M295.66,221.83s5-3.73,7.22-2.08c1.58,1.17,3,6.22,3.65,9.14a1.16,1.16,0,0,1-1.62,1.31A20.68,20.68,0,0,1,295.66,221.83Z"/><path d="M305.41,232a2.93,2.93,0,0,1-1.19-.26,22.61,22.61,0,0,1-10-9.05l-.75-1.28,1.18-.89c1-.75,6.13-4.37,9.22-2.09.57.42,2.31,1.7,4.28,10.1a2.8,2.8,0,0,1-1,2.83A2.84,2.84,0,0,1,305.41,232Zm-7.47-9.67a19.18,19.18,0,0,0,6.71,5.9c-1.24-4.9-2.33-6.8-2.76-7.11S299.64,221.3,297.94,222.31Z"/></g><g id="Layer_24" data-name="Layer 24"><path d="M257.39,288.82l-2.81,1.09-2.81,1.1.51,6.42c.48-.29,4.4-2.12,4.4-2.12s4.12-1.3,4.67-1.41Z"/><path d="M242,300.36l-1.21,2.76-1.21,2.76,4.9,4.18c.14-.55,1.61-4.61,1.61-4.61s2-3.83,2.31-4.3Z"/><path d="M239.29,319.4l1.09,2.81,1.09,2.8,6.42-.51c-.28-.48-2.12-4.39-2.12-4.39s-1.29-4.13-1.41-4.68Z"/><path d="M250.83,334.78l2.75,1.22,2.76,1.21,4.18-4.9c-.54-.14-4.61-1.61-4.61-1.61s-3.83-2-4.3-2.31Z"/><path d="M269.87,337.5l2.8-1.09,2.81-1.09-.51-6.43c-.48.29-4.4,2.12-4.4,2.12s-4.12,1.3-4.67,1.41Z"/><path d="M285.25,326l1.21-2.76,1.21-2.76-4.9-4.18c-.14.55-1.61,4.61-1.61,4.61s-2,3.83-2.31,4.3Z"/><path d="M288,306.92l-1.1-2.81-1.09-2.8-6.42.51c.29.48,2.12,4.39,2.12,4.39s1.29,4.13,1.41,4.68Z"/><path d="M276.42,291.54l-2.75-1.21-2.76-1.22L266.73,294c.54.13,4.61,1.6,4.61,1.6s3.83,2,4.3,2.31Z"/><circle class="cls-8" cx="263.62" cy="313.16" r="18.81"/><circle class="cls-9" cx="263.63" cy="313.16" r="5.36"/></g><g id="Layer_23" data-name="Layer 23"><path d="M306.42,279.15h-2.11l-2.1,0-1.33,4.31c.39-.06,3.41-.24,3.41-.24s3,.22,3.4.29Z"/><path d="M293.44,282.69l-1.5,1.48-1.5,1.48,2.11,4c.23-.31,2.23-2.58,2.23-2.58s2.29-2,2.61-2.2Z"/><path d="M286.76,294.37l0,2.11v2.11l4.31,1.32c-.07-.39-.25-3.41-.25-3.41s.22-3,.29-3.4Z"/><path d="M290.29,307.35l1.48,1.5,1.48,1.5,4-2.1c-.32-.23-2.58-2.24-2.58-2.24s-2-2.29-2.21-2.61Z"/><path d="M302,314l2.11,0h2.11l1.33-4.31c-.39.07-3.41.25-3.41.25s-3-.22-3.4-.29Z"/><path d="M315,310.5l1.5-1.48,1.5-1.48-2.11-4c-.23.32-2.24,2.59-2.24,2.59s-2.29,2-2.61,2.2Z"/><path d="M321.64,298.82v-2.11l0-2.11-4.31-1.32c.06.38.24,3.4.24,3.4s-.22,3-.29,3.41Z"/><path d="M318.1,285.83l-1.48-1.5-1.48-1.5-4,2.11c.32.23,2.58,2.24,2.58,2.24s2,2.29,2.2,2.61Z"/><circle class="cls-8" cx="304.2" cy="296.59" r="13.16"/><circle class="cls-9" cx="304.2" cy="296.59" r="3.75"/></g><g id="Layer_22" data-name="Layer 22"><path d="M287.77,267.66l-1.11-.38-1.11-.39-1.47,2c.21,0,1.84.49,1.84.49s1.55.66,1.74.76Z"/><path d="M280.29,267.19l-1.06.51-1.06.51.4,2.48c.18-.13,1.64-1,1.64-1s1.56-.63,1.77-.69Z"/><path d="M274.67,272.15l-.39,1.1-.39,1.11,2,1.48c0-.22.48-1.84.48-1.84s.66-1.55.76-1.74Z"/><path d="M274.19,279.63l.51,1.05.51,1.06,2.48-.4c-.12-.17-.95-1.64-.95-1.64s-.63-1.56-.7-1.77Z"/><path d="M279.15,285.25l1.11.38,1.11.39,1.47-2c-.22,0-1.84-.49-1.84-.49s-1.55-.66-1.74-.76Z"/><path d="M286.63,285.72l1.06-.51,1.05-.51-.39-2.48c-.18.13-1.65,1-1.65,1s-1.56.63-1.77.69Z"/><path d="M292.25,280.76l.39-1.1.38-1.11-2-1.48c0,.22-.48,1.84-.48,1.84s-.66,1.55-.77,1.74Z"/><path d="M292.72,273.28l-.51-1-.51-1.06-2.48.4c.13.17,1,1.64,1,1.64s.63,1.56.69,1.77Z"/><circle class="cls-10" cx="283.46" cy="276.45" r="7.33"/><path d="M280.82,284.18l-.05,0a8.16,8.16,0,0,1,5.32-15.43h.06a8.18,8.18,0,0,1,5,10.4h0A8.17,8.17,0,0,1,280.82,284.18Zm4.73-13.87a6.49,6.49,0,0,0-8.22,4,6.49,6.49,0,0,0,4,8.27h0a6.5,6.5,0,0,0,4.24-12.28Z"/><circle class="cls-11" cx="283.46" cy="276.46" r="2.09"/><path d="M282.6,279h0a2.6,2.6,0,0,1-1.51-1.34,2.64,2.64,0,0,1,3.23-3.66h0a2.65,2.65,0,0,1,1.63,3.37h0A2.65,2.65,0,0,1,282.6,279ZM284,275a1.53,1.53,0,0,0-1,2.89h0a1.53,1.53,0,0,0,1-2.89Z"/></g><g id="Layer_21" data-name="Layer 21"><path class="cls-5" d="M288.38,174.8a4.19,4.19,0,0,0-5.45.09c-8.07,6.94-37.09,35.13-35.39,80.6,0,0,.24,16.8,9,2.19,0,0,4.27-45.09,30-75.52C286.54,182.16,291.7,177.72,288.38,174.8Z"/></g><g id="Layer_20" data-name="Layer 20"><path class="cls-12" d="M241.66,64c-1.38,4.73-4,9.47-8.92,8.93-3.73-.42-7.81-4.38-8.93-8.93-1.17-4.79,4-8.6,8.93-8.92C238.52,54.68,243.33,58.31,241.66,64Z"/><path class="cls-12" d="M177.22,365.2c-1.38,4.73-4,9.46-8.92,8.92-3.73-.41-7.81-4.38-8.93-8.92-1.17-4.79,4-8.6,8.93-8.93C174.08,355.89,178.89,359.52,177.22,365.2Z"/><path class="cls-12" d="M389.51,239.11c-1.39,4.73-4,9.47-8.93,8.93-3.72-.41-7.81-4.38-8.92-8.93-1.18-4.78,4-8.6,8.92-8.92C386.36,229.81,391.17,233.44,389.51,239.11Z"/><path class="cls-12" d="M382.36,157.87c-1.39,4.73-4,9.47-8.93,8.93-3.72-.42-7.8-4.38-8.92-8.93-1.18-4.79,4-8.6,8.92-8.92C379.21,148.57,384,152.2,382.36,157.87Z"/><path class="cls-12" d="M103.38,116.93a9.16,9.16,0,0,0,9.16,9.15c5.06,0,4.62-6.92,9.16-9.15,9.31-4.6,5-8.71-9.16-9.16A9.05,9.05,0,0,0,103.38,116.93Z"/><path class="cls-12" d="M60.08,231.89a9.17,9.17,0,0,0,12.68-2.66c2.77-4.24-3.27-7.66-2.66-12.68,1.25-10.31-4.53-9-12.67,2.66A9.06,9.06,0,0,0,60.08,231.89Z"/><path class="cls-12" d="M293.64,94.36a9.17,9.17,0,0,0-2,12.8c3,4.09,8.32-.35,12.8,2,9.21,4.8,10-1.08,2-12.8A9.06,9.06,0,0,0,293.64,94.36Z"/></g><g id="Layer_19" data-name="Layer 19"><path class="cls-5" d="M82.29,250.83s-16.4,22.37,1.3,42.86c11.63,13.47,22.87,28.22,30.2,32.49,6.47,3.77,25.32.22,25.59-4.8,0-.18,9.43-5.08-12.8-27.17-3.09-3.07-16-9.56-20.27-10.6-10-2.47-9.49-10.68-4.55-21.53C108.11,248.13,90.67,239.89,82.29,250.83Z"/></g><g id="Layer_18" data-name="Layer 18"><path d="M179.63,122.5l2.66-11.12L174,103.5l1.74-6.92-1-.24L173,103.27l-10.44,3.1L156,100.66l-.66.76,6.57,5.69-2.56,10.7L149.85,123l-7.44-4.2-.49.87,7.48,4.22,2.17,11.63L163.42,137,166,142.8l.91-.4-2.65-6,4.87-10.23,9.86-2.93,5.63,5,.66-.75ZM163.3,136l-10.89-1.43-2-10.79,9.35-5.08,8.12,7.69Zm15.36-13.74-10.07,3-8.17-7.73,2.44-10.22,10.43-3.1,7.89,7.48Z"/><circle class="cls-10" cx="184.91" cy="127.82" r="2.12"/><circle class="cls-10" cx="175.24" cy="96.46" r="2.12"/><circle class="cls-10" cx="155.99" cy="101.04" r="2.12"/><circle class="cls-10" cx="142.17" cy="119.21" r="2.12"/><circle class="cls-10" cx="166.41" cy="142.6" r="2.12"/></g><g id="Layer_17" data-name="Layer 17"><path d="M157,230.91,146,228l-8.05,8.14-6.89-1.9-.26,1,6.89,1.9,2.88,10.51-5.85,6.46.74.67,5.83-6.44,10.64,2.79,5,9.59L152.5,268l.86.51,4.38-7.38,11.67-1.92,1.81-11.82L177,245l-.38-.92-6.06,2.51-10.12-5.08-2.72-9.92,5.07-5.52-.73-.68Zm13.16,16.61-1.65,10.86-10.84,1.77-4.88-9.45,7.87-7.95Zm-13.4-15.65L159.57,242l-7.91,8-10.16-2.66-2.88-10.49,7.65-7.73Z"/><circle class="cls-10" cx="162.46" cy="225.74" r="2.12"/><circle class="cls-10" cx="130.9" cy="234.73" r="2.12"/><circle class="cls-10" cx="135.07" cy="254.08" r="2.12"/><circle class="cls-10" cx="152.93" cy="268.29" r="2.12"/><circle class="cls-10" cx="176.84" cy="244.55" r="2.12"/></g><g id="Layer_16" data-name="Layer 16"><path d="M138.57,182.92l5-10.28-6.4-9.49,3.22-6.38-.89-.45-3.22,6.39-10.87.75-5.18-7-.81.59,5.17,7-4.82,9.89-10.38,3-6.35-5.71-.67.74,6.38,5.74-.42,11.82,11.24,4.1,1.22,6.18,1-.2-1.27-6.44,7-8.92,10.26-.71,4.41,6.06L143,189Zm-18.88,9.64-10.32-3.76.39-11L120,174.9l6.25,9.28Zm18-10.07-10.48.73-6.28-9.32,4.61-9.44,10.85-.76,6.07,9Z"/><circle class="cls-10" cx="139.96" cy="156.55" r="2.12"/><circle class="cls-10" cx="120.18" cy="156.83" r="2.12"/><circle class="cls-10" cx="102.73" cy="171.55" r="2.12"/><circle class="cls-10" cx="121.29" cy="199.66" r="2.12"/></g><g id="Layer_15" data-name="Layer 15"><polygon class="cls-13" points="156.41 191.79 144.82 192.56 138.2 183.02 143.16 172.71 154.75 171.94 161.37 181.48 156.41 191.79"/></g><g id="Layer_14" data-name="Layer 14"><line class="cls-13" x1="144.82" y1="192.56" x2="141.62" y2="199.66"/></g><g id="Layer_13" data-name="Layer 13"><line class="cls-13" x1="161.37" y1="181.48" x2="167.23" y2="181.06"/></g><g id="Layer_12" data-name="Layer 12"><line class="cls-13" x1="154.75" y1="171.94" x2="156.68" y2="167.19"/></g><g id="Layer_11" data-name="Layer 11"><circle class="cls-10" cx="167.23" cy="181.06" r="2.12"/></g><g id="Layer_10" data-name="Layer 10"><circle class="cls-10" cx="156.68" cy="167.19" r="2.12"/></g><g id="Layer_9" data-name="Layer 9"><circle class="cls-10" cx="141.62" cy="199.66" r="2.12"/></g><g id="Layer_6" data-name="Layer 6"><line class="cls-14" x1="146.51" y1="36.75" x2="137.47" y2="16.46"/><line class="cls-14" x1="140.13" y1="39.6" x2="130.4" y2="19.63"/><line class="cls-14" x1="133.87" y1="42.67" x2="123.44" y2="23.06"/><line class="cls-14" x1="127.71" y1="45.96" x2="116.6" y2="26.72"/><line class="cls-14" x1="121.67" y1="49.46" x2="109.9" y2="30.62"/><line class="cls-14" x1="115.76" y1="53.17" x2="103.33" y2="34.76"/><line class="cls-14" x1="109.98" y1="57.09" x2="96.92" y2="39.12"/><line class="cls-14" x1="104.34" y1="61.2" x2="90.66" y2="43.7"/><line class="cls-14" x1="98.84" y1="65.51" x2="84.56" y2="48.49"/><line class="cls-14" x1="93.5" y1="70.01" x2="78.64" y2="53.5"/><line class="cls-14" x1="88.32" y1="74.69" x2="72.89" y2="58.71"/><line class="cls-14" x1="83.31" y1="79.55" x2="67.33" y2="64.11"/><line class="cls-14" x1="78.47" y1="84.58" x2="61.96" y2="69.71"/><line class="cls-14" x1="73.81" y1="89.77" x2="56.79" y2="75.49"/><line class="cls-14" x1="69.33" y1="95.13" x2="51.83" y2="81.45"/><line class="cls-14" x1="65.04" y1="100.64" x2="47.07" y2="87.58"/><line class="cls-14" x1="60.95" y1="106.29" x2="42.54" y2="93.87"/></g><g id="Layer_8" data-name="Layer 8"><path class="cls-15" d="M194.57,430.2a211,211,0,0,1-72.79-24.73C38.67,359-1,264.91,18,176.45"/><path class="cls-15" d="M252.06,10.75A212,212,0,0,1,414.63,126.69"/></g><g id="Layer_7" data-name="Layer 7"><line class="cls-14" x1="256.65" y1="418.18" x2="260.51" y2="440.06"/><line class="cls-14" x1="263.52" y1="416.96" x2="268.14" y2="438.69"/><line class="cls-14" x1="270.35" y1="415.5" x2="275.72" y2="437.05"/><line class="cls-14" x1="277.12" y1="413.79" x2="283.24" y2="435.15"/><line class="cls-14" x1="283.83" y1="411.86" x2="290.69" y2="432.98"/><line class="cls-14" x1="290.46" y1="409.69" x2="298.06" y2="430.56"/><line class="cls-14" x1="297.02" y1="407.29" x2="305.34" y2="427.88"/><line class="cls-14" x1="303.48" y1="404.66" x2="312.52" y2="424.95"/><line class="cls-14" x1="309.86" y1="401.81" x2="319.59" y2="421.77"/><line class="cls-14" x1="316.12" y1="398.74" x2="326.55" y2="418.35"/><line class="cls-14" x1="322.28" y1="395.45" x2="333.39" y2="414.69"/><line class="cls-14" x1="328.32" y1="391.95" x2="340.09" y2="410.78"/><line class="cls-14" x1="334.24" y1="388.24" x2="346.66" y2="406.65"/><line class="cls-14" x1="340.02" y1="384.32" x2="353.07" y2="402.29"/><line class="cls-14" x1="345.66" y1="380.21" x2="359.33" y2="397.71"/><line class="cls-14" x1="351.15" y1="375.9" x2="365.43" y2="392.92"/><line class="cls-14" x1="356.49" y1="371.4" x2="371.35" y2="387.91"/><line class="cls-14" x1="361.67" y1="366.72" x2="377.1" y2="382.7"/><line class="cls-14" x1="366.68" y1="361.86" x2="382.66" y2="377.29"/><line class="cls-14" x1="371.52" y1="356.83" x2="388.03" y2="371.7"/><line class="cls-14" x1="376.18" y1="351.64" x2="393.2" y2="365.91"/><line class="cls-14" x1="380.66" y1="346.28" x2="398.16" y2="359.96"/><line class="cls-14" x1="384.95" y1="340.77" x2="402.92" y2="353.83"/><line class="cls-14" x1="389.04" y1="335.12" x2="407.45" y2="347.54"/><line class="cls-14" x1="392.93" y1="329.32" x2="411.77" y2="341.09"/><line class="cls-14" x1="396.62" y1="323.39" x2="415.86" y2="334.5"/><line class="cls-14" x1="400.1" y1="317.34" x2="419.71" y2="327.77"/><line class="cls-14" x1="403.37" y1="311.17" x2="423.33" y2="320.91"/><line class="cls-14" x1="406.41" y1="304.89" x2="426.71" y2="313.93"/></g></svg>